<?xml version="1.0" standalone="no"?>
<!DOCTYPE svg PUBLIC "-//W3C//DTD SVG 20010904//EN"
 "http://www.w3.org/TR/2001/REC-SVG-20010904/DTD/svg10.dtd">
<svg version="1.0" xmlns="http://www.w3.org/2000/svg"
 width="300.000000pt" height="300.000000pt" viewBox="0 0 300.000000 300.000000"
 preserveAspectRatio="xMidYMid meet">
<metadata>
Created by potrace 1.11, written by Peter Selinger 2001-2013
</metadata>
<g transform="translate(0.000000,300.000000) scale(0.100000,-0.100000)"
fill="#000000" stroke="none">
<path d="M1369 2995 c-2 -1 -31 -6 -64 -10 -33 -3 -80 -11 -105 -17 -25 -5
-56 -12 -70 -14 -38 -7 -203 -65 -217 -77 -7 -5 -13 -7 -13 -4 0 6 -57 -23
-165 -82 -47 -26 -164 -111 -220 -161 -160 -142 -290 -315 -379 -505 -32 -67
-91 -245 -99 -296 -6 -33 -11 -59 -23 -116 -13 -60 -11 -330 2 -422 55 -365
220 -671 499 -922 47 -41 180 -139 190 -139 4 0 21 -10 38 -22 97 -70 347
-162 492 -183 17 -2 55 -8 85 -12 103 -14 383 -7 450 12 8 2 26 6 40 9 121 21
308 93 439 168 282 162 506 417 636 723 28 66 74 213 80 255 2 8 5 29 9 45 14
67 21 157 21 275 0 115 -10 254 -19 269 -2 3 -7 22 -10 41 -13 81 -66 239
-111 331 -87 177 -174 298 -316 438 -216 213 -516 360 -829 406 -48 7 -336 16
-341 10z"/>
</g>
</svg>
